<?xml version="1.0" encoding="UTF-8"?>
<svg id="b" xmlns="http://www.w3.org/2000/svg" viewBox="0 0 256 256"><path d="M143.18,169.55c5.1-9.27,12.89-12.8,19.36-14.51,10.03-2.65,18.93-6.22,25.5-12.05,.53-.48,.47-1.33-.1-1.76-5.89-4.42-11.62-10.33-16.51-16.69-.46-.59-1.39-.2-1.29,.55,.14,1.01,.21,2.04,.21,3.09,0,12.52-10.18,22.7-22.69,22.7-.32,0-.64-.01-.95-.02-.9-.04-1.78,.24-2.51,.76l-1.74,1.22c-2.53,1.79-5.46,2.74-8.7,2.82h-13.6c-3.24-.08-6.17-1.03-8.7-2.82l-1.74-1.22c-.73-.52-1.61-.8-2.51-.76-.31,.01-.63,.02-.95,.02-12.51,0-22.69-10.18-22.69-22.7,0-1.05,.07-2.08,.21-3.09,.1-.75-.83-1.14-1.29-.55-4.89,6.36-10.62,12.27-16.51,16.69-.57,.43-.63,1.28-.1,1.76,6.57,5.83,15.47,9.4,25.5,12.05,6.47,1.71,14.72,5.53,19.36,14.51,.02,.03,.03,.07,.04,.1,2.39,5.93-5.51,10.57-11.57,12.61-2.1,.71-4.3,1.29-6.63,1.72-5.04,1.2-10.08,2.41-15.48,5.2-2.42,1.26-4.29,3.36-5.37,5.87l-2.19,5.13h114.84l-2.19-5.13c-1.08-2.51-2.95-4.61-5.37-5.87-5.4-2.79-10.44-4-15.48-5.2-2.33-.43-4.53-1.02-6.63-1.72-6.06-2.04-13.96-6.68-11.57-12.61,.01-.03,.02-.07,.04-.1Z"/><path d="M147.66,144.88c9.22,0,16.69-7.48,16.69-16.7s-7.47-16.7-16.69-16.7c-7.86,0-14.44,5.42-16.22,12.72-1.09-1.24-2.7-2.02-4.48-2.02s-3.39,.78-4.48,2.02c-1.78-7.3-8.36-12.72-16.22-12.72-9.22,0-16.69,7.48-16.69,16.7s7.47,16.7,16.69,16.7c1.3,0,2.56-.15,3.77-.43,2.99-.69,5.68-2.18,7.81-4.24,.79-.75,1.5-1.58,2.12-2.48,.62-.89,1.16-1.84,1.59-2.85,.39-.87,.7-1.78,.93-2.72,.31-1.27,.48-2.61,.48-3.98,0-2.21,1.79-4,4-4s4,1.79,4,4c0,1.37,.17,2.71,.48,3.98,.23,.94,.54,1.85,.93,2.72,.43,1.01,.97,1.96,1.59,2.85,.62,.9,1.33,1.73,2.12,2.48,2.13,2.06,4.82,3.55,7.81,4.24,1.21,.28,2.47,.43,3.77,.43Z"/><path d="M84.69,116.82c.66,.56,1.68,.41,2.13-.34,3.98-6.59,11.2-11,19.44-11,7.59,0,14.44,3.72,18.59,9.63,.47,.68,1.27,1.07,2.1,1.07h.02c.83,0,1.63-.39,2.1-1.07,4.15-5.91,11-9.63,18.59-9.63,8.24,0,15.46,4.41,19.44,11,.45,.75,1.47,.9,2.13,.34,12.82-10.84,8.94-21.39,7.89-23.66-.19-.4-.37-.8-.53-1.2l-13.8-34.22c-.25-.61-1.03-.78-1.51-.33-2.16,2.03-4.64,4.59-9.28,10.85,0,.08-7.55,10.09-10.57,17.29-.32,.77-1.12,1.22-1.95,1.09-3.57-.56-7.97-.85-12.52-.82-4.55-.03-8.95,.26-12.52,.82-.83,.13-1.63-.32-1.95-1.09-3.02-7.2-10.57-17.21-10.57-17.29-4.64-6.26-7.12-8.82-9.28-10.85-.48-.45-1.26-.28-1.51,.33l-13.8,34.22c-.16,.4-.34,.8-.53,1.2-1.05,2.27-4.93,12.82,7.89,23.66Z"/><path d="M117.52,146.16c-.03-.24-.11-.36-.26-.57-.41-.44-1.1-.42-1.52,.01-.51,.53-1.1,.93-1.74,1.22-.61,.27-.94,.94-.73,1.57h.01c.12,.38,.51,.63,.88,.51,.76-.24,.85-.41,1.39-.41,.24,0,.36,.06,.56,.15,.02,.02,.03,.02,.04,.02,1.13,.56,2.28,.85,3.41,.95,.35,.99,.94,2.45,1.65,3.04,0,0,.14-.79,.39-1.67,.24-.83,.94-1.43,1.79-1.6,.96-.19,1.8-.45,2.47-.7,.22-.08,.42-.16,.6-.23,.16-.07,.33-.11,.5-.11s.34,.04,.5,.11c.18,.07,.38,.15,.6,.23,.67,.25,1.51,.51,2.47,.7,.85,.17,1.55,.77,1.79,1.6,.25,.88,.39,1.67,.39,1.67,.71-.59,1.3-2.05,1.65-3.04,1.13-.1,2.28-.39,3.41-.95,.01,0,.02,0,.04-.02,.2-.09,.32-.15,.56-.15,.54,0,.63,.17,1.39,.41,.37,.12,.76-.13,.88-.5h.01c.21-.64-.12-1.31-.73-1.58-.64-.29-1.23-.69-1.74-1.22-.42-.43-1.11-.45-1.52-.01-.15,.21-.23,.33-.26,.57-.03,.39,.08,.74-.06,.88-.17,.19-.41,.24-.83,.33-2.28,.48-5.11-.1-6.83-.67-.43-.14-.72-.55-.72-1v.14c0-.36,.1-.54,.27-.63,.58-.32,1.32-.73,1.79-1.03,1.19-.76,2.21-1.62,2.76-2.73,.47-.94-.02-2.1-1-2.49-1.61-.63-3.21-.95-4.82-.94-1.61-.01-3.21,.31-4.82,.94-.98,.39-1.47,1.55-1,2.49,.55,1.11,1.57,1.97,2.76,2.73,.47,.3,1.21,.71,1.79,1.03,.17,.09,.27,.27,.27,.63v-.14c0,.45-.29,.86-.72,1-1.72,.57-4.55,1.15-6.83,.67-.42-.09-.66-.14-.83-.33-.14-.14-.03-.49-.06-.88Z"/></svg>